<svg width="15" height="12" viewBox="0 0 15 12" fill="none" xmlns="http://www.w3.org/2000/svg">
    <style>
        path { fill: #6B2628; }
        @media (prefers-color-scheme: dark) {
            path { fill: #ffffff; }
        }
    </style>
    <path
        d="M-2.73809e-06 1.956V2.38419e-07H6.852V1.956H4.404V11.256H2.448V1.956H-2.73809e-06ZM5.94984 6.852C5.94984 4.416 7.91784 2.448 10.3658 2.448C12.7898 2.448 14.7578 4.416 14.7578 6.852V11.256H12.8018V6.852C12.8018 5.496 11.6978 4.392 10.3658 4.392C9.00984 4.392 7.90584 5.496 7.90584 6.852C7.90584 8.184 9.00984 9.3 10.3658 9.3C10.8938 9.3 11.3978 9.12 11.7938 8.82V11.004C11.3498 11.16 10.8578 11.256 10.3658 11.256C7.91784 11.256 5.94984 9.276 5.94984 6.852Z"
    />
</svg>
    